<svg xmlns="http://www.w3.org/2000/svg" viewBox="0 0 128 128">
  <path fill="#2496ED" d="M126.222 97.667c-4.811-4.267-9.689-8.861-12.7-13.954-3.938-6.656-5.711-14.044-4.822-21.611.689-5.856 3.422-11.3 6.511-15.689 2.044-2.722 6.489-8.044 7.356-13.611.422-2.711.544-5.511.122-8.222-.689-4.411-2.711-8.433-5.267-12.211-2.133-3.156-4.9-5.922-6.956-9.122-2.4-3.733-4.156-8.633-2.711-13.222.933-2.956 3.511-5.033 5.822-6.689 1.822-1.3 3.644-2.967 4.156-5.211.511-2.244-.156-4.633-1.911-5.589-1.756-.956-3.911-.511-5.267.956-1.022 1.1-1.689 2.344-2.044 3.811-.422 1.756-.533 3.6-.422 5.411.111 2.489.622 4.922 1.822 6.911.956 1.589 1.689 3.278 2.133 5.167.689 2.878.156 5.978-1.156 8.433-1.533 2.867-3.689 5.322-5.822 7.6-1.533 1.644-2.711 3.533-3.644 5.622-1.289 2.911-1.533 6.133-.622 9.156.689 2.267 2.044 4.156 3.644 5.922 3.689 4.089 7.644 8.489 9.067 14.044.689 2.711.689 5.533.156 8.289-.956 4.956-3.689 9.156-7.244 12.378-3.2 2.911-7.689 3.922-12.156 3.689-3.644-.2-6.989-1.744-9.956-4.267-2.711-2.311-4.533-5.156-5.622-8.378-.956-2.867-1.156-5.911-.622-8.867.156-1.067.533-2.044 1.022-2.878.644-1.1 1.533-1.967 2.489-2.689 2.089-1.533 4.644-2.067 7.244-1.911 2.133.133 4.089.689 5.822 1.533 2.756 1.378 4.822 3.689 5.911 6.4.689 1.689.956 3.533 1.022 5.378.022 1.3-.089 2.533-.422 3.689-.333 1.156-.844 2.156-1.533 2.956-.622.689-1.422 1.156-2.311 1.244-.911.089-1.733-.2-2.444-.689-.689-.467-1.156-1.156-1.378-1.958-.267-.956-.289-1.958-.156-2.956.156-1.222.533-2.356 1.067-3.378.533-1.022 1.244-1.911 2.044-2.622 1.467-1.3 3.289-1.956 5.156-1.911 1.644.022 3.156.533 4.533 1.422 1.156.733 2.044 1.822 2.622 3.067.533 1.1.844 2.311.911 3.644.022.533 0 1.022-.089 1.533-.111.689-.333 1.333-.689 1.911-.422.689-1.022 1.244-1.689 1.533-.711.312-1.422.4-2.133.311-.689-.089-1.311-.444-1.822-.956-.533-.533-.956-1.244-1.244-2.044-.267-.689-.4-1.444-.444-2.267-.022-.689.022-1.356.156-1.989.111-.622.311-1.2.533-1.733.622-1.422 1.533-2.533 2.711-3.333 1.022-.689 2.178-1.111 3.422-1.133.933-.022 1.822.178 2.622.622.8.444 1.444 1.111 1.911 1.911.422.8.711 1.689.844 2.689.133 1.133.022 2.267-.333 3.378-.311 1.067-.844 1.978-1.533 2.756z"/>
</svg>
