<svg xmlns="http://www.w3.org/2000/svg" viewBox="0 0 128 128">
  <path fill="#336791" d="M93.809 92.112c.785-12.689 1.404-21.224 1.404-25.558 0-4.332-.419-10.691-1.404-19.079-1.03-8.386-1.679-14.758-1.951-19.111l-1.286-.392c-1.237-.377-3.273-.978-6.102-1.805a58.772 58.772 0 0 0-6.496-1.638c-.622-3.71-1.407-8.865-2.356-15.46l-1.938-1.205c-1.237-.767-2.597-1.312-4.082-1.619l-1.742-3.297c-.52-.983-1.132-1.907-1.835-2.769-1.133-1.392-2.522-2.325-4.169-2.784l-1.353-2.636c-.784-1.528-1.846-2.737-3.186-3.634l-1.205-1.742c-.696-.997-1.574-1.744-2.635-2.242l-2.001-2.088c-.914-.954-2.025-1.522-3.333-1.695l-1.391-1.391c-.696-.696-1.534-1.128-2.512-1.301l-2.049-.91c-.958-.427-1.918-.637-2.88-.637l-.875.089c-1.025.153-1.92.535-2.684 1.144l-1.392 1.1-.393.392c-.653.653-1.144 1.353-1.475 2.101l-.393.392c-.653 1.025-.956 2.049-.956 3.074 0 .653.089 1.305.267 1.958l-1.048 1.048c-.914.914-1.392 2.001-1.392 3.273l.178.982c.393 2.049 1.68 3.685 3.862 4.901.392.196.813.358 1.261.483l1.915.508c.52 2.297 1.856 4.243 4.01 5.849l.983.783c.74.589 1.482 1.018 2.229 1.286l2.274 1.128c.653.327 1.326.565 2.018.713l2.001.427c2.183.465 3.862 1.856 5.037 4.169l.427.875c.24.496.427 1.032.557 1.607l1.918 1.918c.24.24.413.508.52.807l1.128 1.742c.196.312.327.653.393 1.018l1.742 1.742c.154.154.267.327.34.52l.522.956c.196.37.313.769.353 1.193l.178 1.742c.039.52-.039 1.032-.24 1.534l-.392.783c-.414.827-.87 1.493-1.368 2.001l-.783.783c-.984 1.025-2.025 1.607-3.117 1.746l-.522.089c-.914.154-1.775.413-2.584.783l-1.915.875c-.74.349-1.419.712-2.039 1.089l-1.607.984c-1.025.653-1.889 1.415-2.597 2.284l-1.742 2.155c-.914 1.153-1.534 2.521-1.86 4.101l-.392 2.001c-.196 1.089-.154 2.11.128 3.067l.875 2.155c.475 1.153 1.198 2.071 2.171 2.754l.522.392c.914.696 1.89 1.128 2.929 1.286l1.742.267c1.237.178 2.391-.089 3.451-.783l.522-.392c.914-.696 1.677-1.512 2.274-2.449l.267-.392c.653-.984 1.089-1.958 1.305-2.929l.267-1.128c.24-.984.52-1.958.84-2.88l1.048-1.128c.622-.653 1.322-1.18 2.101-1.581l1.742-.875c1.025-.507 2.071-.84 3.117-.984l2.274-.267c.653-.078 1.237-.039 1.742.089l3.451.522c1.153.24 2.049.74 2.684 1.496l.522.607c.653.784 1.01 1.72 1.01 2.812 0 .653-.089 1.353-.267 2.101l-.522 1.742z"/>
</svg>
